<?xml version="1.0" encoding="UTF-8"?>
<svg data-bbox="0.872 0.48 806.048 35.904" xmlns="http://www.w3.org/2000/svg" viewBox="0 0 807 37" height="37" width="807" data-type="color">
    <g>
        <path d="M5.8 3.872l4.864 16.448h.064l4.8-16.768h2.784l4.992 16.768h.064l4.736-16.448h4.928l-8.16 24.608h-3.456l-4.8-15.776h-.064L12.008 28.48H8.552L.872 3.872H5.8zm51.232 12.032c0 7.104-4.576 12.736-11.936 12.736S33.16 23.008 33.16 15.904c0-7.168 4.736-12.672 11.936-12.672s11.936 5.504 11.936 12.672zm-4.864-.192c0-3.904-2.624-7.84-7.072-7.84s-7.072 3.936-7.072 7.84c0 3.712 1.856 8.288 7.072 8.288s7.072-4.576 7.072-8.288zm16.672 2.112L75.656 28H69.96l-5.856-9.728h-.064V28h-4.704V3.872h6.368c4.768 0 8.064 2.112 8.064 7.264 0 3.072-1.696 6.144-4.928 6.688zm-4.8-10.112v7.264h.608c2.592 0 4.416-.768 4.416-3.712 0-2.976-1.888-3.552-4.384-3.552h-.64zm17.92 6.336l7.456-10.176h5.792l-9.152 11.136L95.72 28h-6.048L81.96 17.152h-.064V28h-4.704V3.872h4.704v10.176h.064zm28.896-1.76V28h-4.48V12.288h4.48zm-2.24-9.248a2.67 2.67 0 0 1 2.656 2.656 2.65 2.65 0 0 1-2.656 2.656 2.65 2.65 0 0 1-2.656-2.656 2.67 2.67 0 0 1 2.656-2.656zm10.112 9.248v1.44h.064c.928-1.408 2.496-1.952 4.096-1.952 4.224 0 5.44 2.976 5.44 6.624V28h-4.48v-8.32c0-1.888.096-4.32-2.432-4.32-2.656 0-2.688 2.976-2.688 4.864V28h-4.48V12.288h4.48zM160.84 28l-1.92-14.976h-.064l-5.472 15.296h-1.632l-5.28-15.296h-.064L144.264 28h-4.736l4.064-24.768h3.328l5.952 15.904 5.696-15.904h3.392L165.576 28h-4.736zm21.536-15.712V28h-4.416v-1.44h-.064c-.96 1.248-2.624 1.952-4.256 1.952-4.608 0-7.232-4.192-7.232-8.448 0-4.16 2.656-8.288 7.168-8.288 1.632 0 3.296.704 4.384 1.984v-1.472h4.416zm-7.712 12.256c2.304 0 3.744-2.304 3.744-4.416 0-2.112-1.44-4.384-3.744-4.384-2.304 0-3.712 2.272-3.712 4.384 0 2.112 1.408 4.416 3.712 4.416zm15.424-12.256v1.44h.064c.928-1.408 2.496-1.952 4.096-1.952 4.224 0 5.44 2.976 5.44 6.624V28h-4.48v-8.32c0-1.888.096-4.32-2.432-4.32-2.656 0-2.688 2.976-2.688 4.864V28h-4.48V12.288h4.48zm17.504 0V28h-4.48V12.288h4.48zm-2.24-9.248a2.67 2.67 0 0 1 2.656 2.656 2.65 2.65 0 0 1-2.656 2.656 2.65 2.65 0 0 1-2.656-2.656 2.67 2.67 0 0 1 2.656-2.656zm10.112 9.248v1.44c1.024-1.216 2.688-1.952 4.352-1.952 4.448 0 7.168 4.16 7.168 8.288 0 4.288-2.624 8.448-7.264 8.448-1.6 0-3.296-.704-4.192-1.984h-.064v9.856h-4.48V12.288h4.48zm3.264 12.256c2.304 0 3.712-2.304 3.712-4.416 0-2.112-1.408-4.384-3.712-4.384-2.304 0-3.712 2.272-3.712 4.384 0 2.112 1.408 4.416 3.712 4.416zm25.184-12.256V28h-4.416v-1.44h-.064c-.96 1.248-2.624 1.952-4.256 1.952-4.608 0-7.232-4.192-7.232-8.448 0-4.16 2.656-8.288 7.168-8.288 1.632 0 3.296.704 4.384 1.984v-1.472h4.416zM236.2 24.544c2.304 0 3.744-2.304 3.744-4.416 0-2.112-1.44-4.384-3.744-4.384-2.304 0-3.712 2.272-3.712 4.384 0 2.112 1.408 4.416 3.712 4.416zM251.624.864V28h-4.48V.864h4.48zm6.208 22.08c1.568 0 2.848 1.248 2.848 2.816 0 1.568-1.28 2.88-2.848 2.88-1.568 0-2.848-1.312-2.848-2.88 0-1.568 1.28-2.816 2.848-2.816zm28.064-14.976h-7.776v5.312h7.488v4.096h-7.488v6.528h7.776V28h-12.48V3.872h12.48v4.096zm8.864 7.264l-6.496-11.36h5.568l3.84 7.488 3.52-7.488h5.568l-6.688 11.36L307.496 28h-5.472l-4.864-8.832L292.552 28h-5.504l7.712-12.768zm18.912 3.744V28h-4.704V3.872h6.4c5.056 0 8.352 2.016 8.352 7.488 0 5.12-2.784 7.616-7.712 7.616h-2.336zm0-11.2v7.296h.96c2.784 0 4.288-.608 4.288-3.744 0-3.104-1.792-3.552-4.416-3.552h-.832zm24.672.192h-7.776v5.312h7.488v4.096h-7.488v6.528h7.776V28h-12.48V3.872h12.48v4.096zm12.64 9.856L357.8 28h-5.696l-5.856-9.728h-.064V28h-4.704V3.872h6.368c4.768 0 8.064 2.112 8.064 7.264 0 3.072-1.696 6.144-4.928 6.688zm-4.8-10.112v7.264h.608c2.592 0 4.416-.768 4.416-3.712 0-2.976-1.888-3.552-4.384-3.552h-.64zm17.856-3.84V28h-4.704V3.872h4.704zm15.904 4.096h-7.776v5.312h7.488v4.096h-7.488v6.528h7.776V28h-12.48V3.872h12.48v4.096zM383.08 28V3.232h3.392l12.704 16.864h.064V3.872h4.704V28.48h-3.392l-12.704-16.864h-.064V28h-4.704zm40.416-23.36v5.632c-1.312-1.6-3.296-2.56-5.312-2.56-4.512 0-7.104 4.16-7.104 8.32 0 4.064 2.688 8.128 7.072 8.128 2.016 0 4.032-1.056 5.344-2.56v5.6c-1.76.832-3.52 1.44-5.472 1.44-6.784 0-11.808-5.856-11.808-12.512 0-6.848 4.832-12.896 11.904-12.896 1.888 0 3.744.512 5.376 1.408zm15.584 3.328h-7.776v5.312h7.488v4.096h-7.488v6.528h7.776V28H426.6V3.872h12.48v4.096zm17.088-4.096V28h-4.704V3.872h4.704zm7.776 8.416v1.44h.064c.928-1.408 2.496-1.952 4.096-1.952 4.224 0 5.44 2.976 5.44 6.624V28h-4.48v-8.32c0-1.888.096-4.32-2.432-4.32-2.656 0-2.688 2.976-2.688 4.864V28h-4.48V12.288h4.48zM487.144 28v-1.472h-.064c-.928 1.28-2.592 1.984-4.224 1.984-4.608 0-7.232-4.192-7.232-8.448 0-4.16 2.656-8.288 7.168-8.288 1.632 0 3.296.704 4.288 1.952h.064V.864h4.48V28h-4.48zm-3.264-3.456c2.304 0 3.712-2.304 3.712-4.416 0-2.112-1.408-4.384-3.712-4.384-2.304 0-3.712 2.272-3.712 4.384 0 2.112 1.408 4.416 3.712 4.416zm15.648-12.256V28h-4.48V12.288h4.48zm-2.24-9.248a2.67 2.67 0 0 1 2.656 2.656 2.65 2.65 0 0 1-2.656 2.656 2.65 2.65 0 0 1-2.656-2.656 2.67 2.67 0 0 1 2.656-2.656zm20.48 9.248V28h-4.416v-1.44h-.064c-.96 1.248-2.624 1.952-4.256 1.952-4.608 0-7.232-4.192-7.232-8.448 0-4.16 2.656-8.288 7.168-8.288 1.632 0 3.296.704 4.384 1.984v-1.472h4.416zm-7.712 12.256c2.304 0 3.744-2.304 3.744-4.416 0-2.112-1.44-4.384-3.744-4.384-2.304 0-3.712 2.272-3.712 4.384 0 2.112 1.408 4.416 3.712 4.416zm13.984-1.6c1.568 0 2.848 1.248 2.848 2.816 0 1.568-1.28 2.88-2.848 2.88-1.568 0-2.848-1.312-2.848-2.88 0-1.568 1.28-2.816 2.848-2.816zM539.624 28V3.872h6.72c6.976 0 11.648 5.216 11.648 12.096 0 6.784-4.8 12.032-11.68 12.032h-6.688zm4.704-20.032v15.936h.768c5.792 0 8.032-3.2 8.032-7.968 0-5.248-2.688-7.968-8.032-7.968h-.768zM565 3.872V28h-4.704V3.872H565zm16.992 2.048l-2.208 3.264c-.896-1.216-2.048-1.984-3.616-1.984-1.504 0-2.944 1.152-2.944 2.72 0 4.064 9.568 2.368 9.568 10.464 0 4.832-3.008 8.256-7.936 8.256-3.328 0-5.76-1.92-7.424-4.704l3.04-2.976c.64 1.856 2.336 3.52 4.352 3.52 1.92 0 3.104-1.632 3.104-3.488 0-2.496-2.304-3.2-4.192-3.936-3.104-1.28-5.376-2.848-5.376-6.592 0-4 2.976-7.232 7.04-7.232 2.144 0 5.12 1.056 6.592 2.688zm19.392-1.28v5.632c-1.312-1.6-3.296-2.56-5.312-2.56-4.512 0-7.104 4.16-7.104 8.32 0 4.064 2.688 8.128 7.072 8.128 2.016 0 4.032-1.056 5.344-2.56v5.6c-1.76.832-3.52 1.44-5.472 1.44-6.784 0-11.808-5.856-11.808-12.512 0-6.848 4.832-12.896 11.904-12.896 1.888 0 3.744.512 5.376 1.408zm25.824 11.264c0 7.104-4.576 12.736-11.936 12.736s-11.936-5.632-11.936-12.736c0-7.168 4.736-12.672 11.936-12.672s11.936 5.504 11.936 12.672zm-4.864-.192c0-3.904-2.624-7.84-7.072-7.84s-7.072 3.936-7.072 7.84c0 3.712 1.856 8.288 7.072 8.288s7.072-4.576 7.072-8.288zm10.048-11.84l5.792 16.256h.064l5.376-16.256h5.056l-9.376 24.768h-2.752l-9.216-24.768h5.056zm30.048 4.096h-7.776v5.312h7.488v4.096h-7.488v6.528h7.776V28h-12.48V3.872h12.48v4.096zm12.64 9.856L681.896 28H676.2l-5.856-9.728h-.064V28h-4.704V3.872h6.368c4.768 0 8.064 2.112 8.064 7.264 0 3.072-1.696 6.144-4.928 6.688zm-4.8-10.112v7.264h.608c2.592 0 4.416-.768 4.416-3.712 0-2.976-1.888-3.552-4.384-3.552h-.64zm27.648 9.216L690.44 3.872h5.472l4.224 8.384 4.608-8.384h5.504l-7.616 13.056V28h-4.704V16.928zm17.376-5.152c4.896 0 8.256 3.488 8.256 8.384 0 4.864-3.328 8.352-8.256 8.352-4.928 0-8.256-3.488-8.256-8.352 0-4.896 3.36-8.384 8.256-8.384zm0 3.968c-2.304 0-3.712 2.24-3.712 4.416 0 2.112 1.408 4.384 3.712 4.384 2.304 0 3.712-2.272 3.712-4.384 0-2.176-1.408-4.416-3.712-4.416zm10.272-3.456h4.48V20.8c0 1.792.288 3.936 2.56 3.936 2.272 0 2.56-2.144 2.56-3.936v-8.512h4.48v9.248c0 4.576-2.368 6.976-7.04 6.976-4.672 0-7.04-2.4-7.04-6.976v-9.248zm21.696 0v1.632h.064c.896-1.376 2.24-2.144 3.904-2.144.64 0 1.28.16 1.856.384l-.544 4.16a3.187 3.187 0 0 0-1.856-.576c-3.104 0-3.424 2.752-3.424 5.184V28h-4.48V12.288h4.48zm17.248 1.12L762.6 16c-.64-.608-1.472-1.088-2.368-1.088-.736 0-1.472.576-1.472 1.344 0 1.152 1.632 1.472 3.232 2.176 1.632.704 3.232 1.792 3.232 4.512 0 3.488-2.816 5.568-6.112 5.568a7.22 7.22 0 0 1-5.536-2.624l2.048-2.656c.864.96 2.016 1.824 3.328 1.824.992 0 1.792-.672 1.792-1.696 0-1.376-1.568-1.696-3.136-2.368-1.568-.672-3.136-1.6-3.136-4.128 0-2.944 2.048-5.088 4.992-5.088 1.664 0 3.776.512 5.056 1.632zm17.088 7.456h-10.336c0 1.984.768 4.224 3.104 4.224 1.472 0 2.4-.896 3.008-2.144l4.128.672c-1.088 3.136-3.84 4.896-7.136 4.896-4.864 0-7.84-3.456-7.84-8.224 0-4.768 2.528-8.512 7.616-8.512 5.152 0 7.456 3.808 7.456 8.544v.544zM771.4 18.08h5.984c-.224-1.6-1.248-3.168-2.976-3.168-1.792 0-2.784 1.536-3.008 3.168zM788.168.864V28h-4.48V.864h4.48zm7.808 15.2V28h-4.48V16.064h-1.504v-3.776h1.504V7.68c0-3.84 1.6-7.2 5.92-7.2a4.6 4.6 0 0 1 2.144.512v4c-.576-.288-1.152-.544-1.824-.544-1.984 0-1.76 2.592-1.76 3.872v3.968h3.584v3.776h-3.584zm8.096 6.88c1.568 0 2.848 1.248 2.848 2.816 0 1.568-1.28 2.88-2.848 2.88-1.568 0-2.848-1.312-2.848-2.88 0-1.568 1.28-2.816 2.848-2.816z" fill="#FFFFFF" data-color="1"/>
    </g>
</svg>
